<svg width="50" height="50" viewBox="0 0 50 50" fill="none" xmlns="http://www.w3.org/2000/svg">
<circle cx="25" cy="25" r="25" fill="black"/>
<path d="M40 22.0606C37.051 22.0676 34.1744 21.1479 31.7764 19.4314V31.4028C31.7756 33.62 31.0979 35.7841 29.8339 37.6058C28.57 39.4274 26.78 40.8198 24.7033 41.5967C22.6267 42.3736 20.3623 42.498 18.2131 41.9532C16.0638 41.4085 14.1321 40.2205 12.6762 38.5483C11.2203 36.876 10.3096 34.7991 10.066 32.5954C9.82229 30.3916 10.2572 28.1659 11.3126 26.216C12.368 24.2661 13.9936 22.6848 15.9719 21.6837C17.9502 20.6826 20.1871 20.3093 22.3833 20.6137V26.6349C21.3783 26.3188 20.2991 26.3283 19.2999 26.6621C18.3006 26.9959 17.4324 27.6369 16.8191 28.4936C16.2059 29.3503 15.8791 30.3788 15.8853 31.4323C15.8915 32.4858 16.2304 33.5105 16.8537 34.3599C17.477 35.2093 18.3527 35.84 19.3558 36.162C20.3589 36.484 21.4381 36.4808 22.4393 36.1529C23.4405 35.825 24.3125 35.1891 24.9308 34.336C25.549 33.4829 25.8819 32.4563 25.8818 31.4028V8H31.7764C31.7723 8.49778 31.814 8.99489 31.901 9.48503C32.1058 10.5792 32.5317 11.6201 33.1526 12.544C33.7735 13.4679 34.5764 14.2555 35.5121 14.8585C36.8433 15.7387 38.4041 16.2078 40 16.2075V22.0606Z" fill="white"/>
</svg>
